# xmcd
#
# Track frame offsets:
#	150
#	17175
#	35640
#	68020
#	82559
#	100267
#	109346
#	146259
#	160150
#	178554
#	210035
#	221005
#	241688
#	262069
#
# Disc length: 4268 seconds
#
# Revision: 1
# Processed by: cddbd v1.5.1PL0 Copyright (c) Steve Scherf et al.
# Submitted via: EasyCDDAExtractor 7.0.5.4
#
DISCID=b110aa0e
DTITLE=King Snakes - Issues Up Top
DYEAR=2004
DGENRE=Blues
TTITLE0=Tell Me Why
TTITLE1=Don't Need No Whiskey
TTITLE2=Use Me
TTITLE3=Good Times
TTITLE4=Ta Blues
TTITLE5=Patsy
TTITLE6=Stormy Outside
TTITLE7=Kokomo Blues
TTITLE8=Grass Is Greener
TTITLE9=Preachin' Blues
TTITLE10=Greenwood County Stomp
TTITLE11=What You Gonna Do?
TTITLE12=Pony Blues
TTITLE13=Cortez The Killer
EXTD=
EXTT0=
EXTT1=
EXTT2=
EXTT3=
EXTT4=
EXTT5=
EXTT6=
EXTT7=
EXTT8=
EXTT9=
EXTT10=
EXTT11=
EXTT12=
EXTT13=
PLAYORDER=
